<svg width="48" height="48" viewBox="0 0 48 48" fill="none" xmlns="http://www.w3.org/2000/svg">
<mask id="mask0_401_27313" style="mask-type:alpha" maskUnits="userSpaceOnUse" x="0" y="0" width="48" height="48">
<circle cx="24" cy="24" r="24" fill="#D9D9D9"/>
</mask>
<g mask="url(#mask0_401_27313)">
<path d="M-12.218 -1.74561H63.7093V48.8726H-12.218V-1.74561Z" fill="#E72C25"/>
<path d="M-9.60013 -5.23669H28.7999V23.9269C28.7999 26.1361 27.009 27.9269 24.7999 27.9269H-9.60013V-5.23669Z" fill="#2537BC"/>
<path d="M15.709 6.9823L18.0363 15.7096L15.709 24.4368L13.3817 15.7096L15.709 6.9823ZM6.98172 15.7096L15.709 18.0368L24.4363 15.7096L15.709 13.3823L6.98172 15.7096Z" fill="white"/>
<path d="M20.0726 8.15153L17.7245 16.8732L11.3454 23.2676L13.6935 14.5459L20.0726 8.15153ZM8.15095 11.3459L14.5454 17.725L23.267 20.0732L16.8726 13.6941L8.15095 11.3459Z" fill="white"/>
<path d="M23.267 11.3459L16.8726 17.725L8.15095 20.0732L14.5454 13.6941L23.267 11.3459ZM11.3454 8.15153L13.6935 16.8732L20.0726 23.2676L17.7245 14.5459L11.3454 8.15153Z" fill="white"/>
<path d="M15.7089 20.762C18.4994 20.762 20.7615 18.4999 20.7615 15.7094C20.7615 12.9189 18.4994 10.6567 15.7089 10.6567C12.9184 10.6567 10.6562 12.9189 10.6562 15.7094C10.6562 18.4999 12.9184 20.762 15.7089 20.762Z" fill="white"/>
<path d="M20.1671 15.7094C20.1671 13.2472 18.1711 11.2512 15.7089 11.2512C13.2467 11.2512 11.2507 13.2472 11.2507 15.7094C11.2507 18.1716 13.2467 20.1676 15.7089 20.1676C18.1711 20.1676 20.1671 18.1716 20.1671 15.7094ZM20.7615 15.7094C20.7615 18.4999 18.4994 20.762 15.7089 20.762C12.9184 20.762 10.6562 18.4999 10.6562 15.7094C10.6562 12.9189 12.9184 10.6567 15.7089 10.6567C18.4994 10.6567 20.7615 12.9189 20.7615 15.7094Z" fill="#2537BC"/>
</g>
</svg>
